# xmcd CD database file
#
# Track frame offsets:
#	150
#	10066
#	20345
#	32674
#	43835
#	52043
#	62788
#	72906
#	85254
#	97223
#	105141
#	117083
#	128451
#	136033
#	145542
#
# Disc length: 2082 seconds
#
# Revision: 2
# Processed by: cddbd v1.5.2PL0 Copyright (c) Steve Scherf et al.
# Submitted via: CDex 1.70beta2
#
DISCID=bd08200f
DTITLE=Johnny Cash - Storyteller - CD 2
DYEAR=2009
DGENRE=Country
TTITLE0=Ballad Of A Teenage Queen
TTITLE1=There You Go
TTITLE2=I Walk The Line
TTITLE3=Don't Make Me Go
TTITLE4=Guess Things Happen That Way
TTITLE5=Train Of Love
TTITLE6=The Ways Of A Woman In Love
TTITLE7=Next In Line
TTITLE8=You're The Nearest Thing To Heaven
TTITLE9=I Can't Help It
TTITLE10=Home Of The Blues
TTITLE11=Big River
TTITLE12=Come In Stranger [Bonus Track]
TTITLE13=It's Just About Time [Bonus Track]
TTITLE14=I Thought You'd Like To Know [Bonus Track]
EXTD=YEAR: 2009
EXTT0=
EXTT1=
EXTT2=
EXTT3=
EXTT4=
EXTT5=
EXTT6=
EXTT7=
EXTT8=
EXTT9=
EXTT10=
EXTT11=
EXTT12=
EXTT13=
EXTT14=
PLAYORDER=
